<?xml version="1.0" standalone="no"?>
<!DOCTYPE svg PUBLIC "-//W3C//DTD SVG 20010904//EN"
 "http://www.w3.org/TR/2001/REC-SVG-20010904/DTD/svg10.dtd">
<svg version="1.0" xmlns="http://www.w3.org/2000/svg"
 width="1280.000000pt" height="853.000000pt" viewBox="0 0 1280.000000 853.000000"
 preserveAspectRatio="xMidYMid meet">
<g transform="translate(0.000000,853.000000) scale(0.100000,-0.100000)"
fill="#000000" stroke="none">
<path d="M6860 7651 c-41 -17 -95 -37 -120 -46 -25 -9 -83 -47 -129 -86 -46
-38 -92 -69 -101 -69 -10 0 -28 8 -41 19 -55 42 -91 53 -188 56 -117 3 -120 4
-303 72 -144 55 -148 55 -193 43 -25 -7 -75 -30 -110 -51 -74 -45 -89 -46
-181 -18 -91 28 -179 27 -276 -4 -94 -30 -167 -81 -308 -214 -58 -54 -145
-132 -195 -173 -49 -41 -124 -104 -165 -140 -81 -72 -182 -150 -216 -168 -16
-8 -78 -10 -211 -5 -205 7 -298 -2 -443 -41 -47 -13 -109 -35 -138 -50 -61
-31 -284 -121 -325 -131 -30 -8 -54 -3 -254 57 -301 89 -401 150 -655 398
-205 201 -276 249 -433 292 -95 25 -376 45 -447 30 -155 -31 -235 -90 -300
-223 -40 -79 -50 -157 -28 -200 8 -13 6 -72 -5 -196 -21 -237 -27 -267 -70
-314 -60 -67 -112 -184 -190 -429 -15 -47 -40 -108 -56 -136 -19 -33 -33 -77
-38 -120 -5 -38 -19 -96 -31 -129 -28 -78 -42 -273 -34 -460 6 -127 4 -152
-20 -266 -14 -70 -26 -150 -26 -179 0 -28 -7 -64 -15 -78 -37 -67 -124 -264
-145 -326 -19 -59 -22 -82 -17 -160 3 -50 13 -115 22 -144 l16 -53 -36 -55
c-71 -106 -105 -192 -141 -348 -46 -199 -51 -280 -25 -424 16 -90 31 -138 74
-232 30 -65 71 -143 91 -173 47 -71 151 -156 246 -201 85 -41 134 -45 333 -26
103 10 110 9 138 -10 16 -12 29 -28 29 -35 0 -26 51 -130 77 -157 36 -38 60
-45 228 -67 243 -31 401 -44 479 -38 104 8 560 130 590 158 20 18 49 8 87 -32
21 -22 39 -47 39 -55 0 -20 77 -102 114 -121 45 -23 405 -12 530 16 107 25
182 52 234 85 26 16 84 33 173 51 74 15 197 43 274 62 139 36 141 36 405 41
289 5 507 -8 642 -38 46 -10 153 -34 238 -54 85 -20 181 -39 214 -43 47 -5 63
-12 84 -35 33 -37 153 -102 244 -132 73 -24 73 -24 107 -5 37 22 61 13 61 -22
0 -27 32 -44 153 -78 205 -59 297 -77 712 -137 261 -38 412 -51 467 -40 43 8
202 112 315 207 45 38 90 69 101 69 10 0 33 -18 50 -39 19 -24 49 -46 76 -56
44 -17 45 -18 52 -74 15 -125 39 -137 274 -133 234 3 258 11 359 108 43 41 91
92 106 114 38 55 60 50 61 -15 4 -176 3 -175 149 -175 137 0 402 28 437 46 15
8 40 31 55 51 15 20 47 57 69 82 23 25 49 60 58 78 9 18 25 37 37 43 11 6 34
33 50 60 25 40 38 52 70 60 51 14 76 6 116 -36 27 -29 36 -32 67 -27 34 5 37
4 51 -31 13 -31 28 -43 88 -72 39 -19 86 -34 104 -34 54 0 251 85 321 138 20
15 49 57 73 104 47 94 65 102 142 67 78 -37 160 -32 262 15 113 52 232 124
255 153 17 21 20 41 20 112 0 83 1 89 29 115 15 15 34 46 40 69 25 85 59 108
96 67 10 -11 35 -23 56 -26 26 -5 40 -13 45 -26 5 -17 11 -19 43 -13 42 9 76
9 152 0 l56 -7 142 127 141 128 -6 48 c-6 42 -4 50 19 73 19 19 37 26 65 26
35 0 44 6 89 58 133 153 163 196 157 225 -8 37 16 71 67 97 45 23 69 66 69
123 0 22 8 41 21 53 12 10 30 38 40 60 18 39 18 44 2 89 -15 45 -15 50 2 81
40 75 -3 595 -59 719 -31 68 -70 112 -125 139 -25 13 -55 34 -66 46 -34 39
-209 162 -313 223 -91 51 -106 57 -159 57 -32 0 -95 7 -140 14 -326 58 -445
68 -1103 96 -213 9 -421 37 -635 85 -60 14 -148 32 -195 40 -109 19 -291 53
-355 67 -100 21 -109 29 -160 127 -74 144 -132 176 -226 128 -42 -23 -53 -25
-77 -15 -15 7 -91 12 -177 14 -131 1 -156 4 -192 22 -50 26 -89 71 -98 114
-16 84 -49 116 -152 147 -69 21 -134 53 -153 76 -7 9 -17 41 -21 72 -9 68 -35
98 -98 113 -66 15 -134 0 -175 -39 -17 -17 -37 -31 -44 -31 -11 0 -55 129 -67
202 -4 23 -1 58 10 94 34 118 23 172 -58 277 -35 45 -112 87 -160 87 -31 0
-36 4 -51 45 -10 24 -40 79 -68 121 -28 42 -50 86 -50 98 0 11 9 42 20 68 27
62 36 169 18 213 -27 63 -95 126 -186 169 -74 35 -95 41 -165 43 -69 2 -91 -1
-155 -26z m233 -135 c46 -19 74 -54 97 -119 29 -83 27 -96 -31 -152 -28 -28
-68 -75 -89 -105 -36 -53 -45 -59 -231 -154 -107 -54 -206 -107 -221 -117 -31
-22 -88 -36 -88 -22 0 5 13 36 29 69 46 92 63 192 50 299 l-10 89 43 44 c88
91 211 151 351 172 29 4 56 8 60 9 4 0 22 -5 40 -13z m-994 -101 c51 -14 116
-25 144 -25 96 -1 153 -23 141 -55 -3 -7 -50 -29 -105 -50 -55 -21 -116 -50
-136 -66 -19 -16 -42 -29 -49 -29 -26 0 -69 22 -104 54 -21 18 -69 52 -107 75
-131 78 -145 117 -46 124 89 6 162 -1 262 -28z m367 -269 c8 -22 -15 -94 -33
-105 -22 -12 -113 37 -113 60 0 10 19 25 48 37 55 25 90 28 98 8z m748 -189
c14 -18 30 -57 37 -86 15 -70 6 -78 -141 -126 -63 -21 -127 -44 -142 -52 -24
-12 -32 -11 -59 2 -24 13 -30 22 -27 43 2 21 17 34 78 67 77 43 96 58 168 138
24 26 47 47 52 47 5 0 20 -15 34 -33z m-11 -386 c-5 -37 -32 -91 -46 -91 -8 0
-20 14 -28 31 -12 30 -11 33 22 60 38 32 55 32 52 0z"/>
</g>
</svg>
